<?xml version="1.0" encoding="utf-8"?>
<!-- Generator: Adobe Illustrator 16.0.0, SVG Export Plug-In . SVG Version: 6.00 Build 0)  -->
<!DOCTYPE svg PUBLIC "-//W3C//DTD SVG 1.1//EN" "http://www.w3.org/Graphics/SVG/1.1/DTD/svg11.dtd">
<svg version="1.1" id="Layer_1" xmlns="http://www.w3.org/2000/svg" xmlns:xlink="http://www.w3.org/1999/xlink" x="0px" y="0px"
	 width="483px" height="174px" viewBox="0 0 483 174" enable-background="new 0 0 483 174" xml:space="preserve">
<g>
	<path d="M452.893,0.322c-0.619-0.084-1.232-0.214-1.85-0.322c-139.68,0-279.36,0-419.04,0c-1.75,0.325-3.511,0.6-5.249,0.983
		C13.486,3.915,2.803,15.425,0.815,28.892c-0.138,0.933-0.327,1.859-0.492,2.788c0,36.88,0,73.76,0,110.641
		c0.325,1.75,0.6,3.511,0.983,5.248c2.931,13.266,14.472,23.977,27.908,25.939c0.934,0.137,1.859,0.326,2.788,0.492
		c139.68,0,279.36,0,419.04,0c1.752-0.326,3.52-0.592,5.256-0.989c13.779-3.151,24.463-15.038,26.104-29.046
		c0.176-1.505,0.262-3.029,0.264-4.544c0.014-34.987,0.01-69.974,0.01-104.961C482.676,17.154,470.014,2.645,452.893,0.322z
		 M474.01,161.047c-5.879,6.854-13.264,10.877-22.277,11.811c-1.348,0.14-2.709,0.203-4.066,0.203
		c-137.703,0.01-275.408,0.021-413.112-0.018c-10.292-0.002-18.79-4.191-25.51-11.979c-0.203-0.235-0.364-0.506-0.687-0.959
		c155.522,0,310.805,0,466.287,0C474.381,160.498,474.223,160.797,474.01,161.047z M51.362,124.416
		c9.368-2.43,10.788-10.904,8.56-17.221c-1.342-3.803-3.716-6.98-6.425-9.884c-3.571-3.829-7.283-7.526-10.913-11.3
		c-4.388-4.562-8.529-9.309-11.409-15.025c-8.307-16.494-0.393-33.41,16.141-39.276c7.853-2.786,15.776-2.647,23.481,0.714
		c3.326,1.451,6.02,3.672,6.914,7.444c0.48,2.028,0.255,4.045-0.309,6.031c-1.55,5.467-6.558,10.035-11.57,10.558
		c-3.557,0.372-6.254-1.528-7.21-5.019c-0.477-1.739-0.148-3.402,0.293-5.074c0.158-0.599,0.296-1.203,0.495-2.021
		c-0.9,0.136-1.621,0.154-2.284,0.359c-4.676,1.445-8.265,4.123-9.326,9.152c-0.673,3.183,0.205,6.265,1.537,9.183
		c1.854,4.06,4.778,7.345,7.729,10.616c3.906,4.331,7.949,8.555,11.604,13.091c4.881,6.058,7.671,13.075,8.717,20.832
		c2.3,17.054-9.428,27.757-19.857,31.679c-4.842,1.822-9.835,2.096-14.867,1.497c-2.785-0.331-5.617-0.903-8.231-1.89
		c-5.342-2.013-7.732-6.385-8.446-11.821c-0.441-3.36-0.413-6.708,0.726-9.946c1.54-4.377,4.413-7.09,9.198-7.848
		c4.231-0.668,10.813,3.766,8.956,9.75c-0.553,1.783-1.171,3.547-1.78,5.381C45.896,125.535,48.651,125.118,51.362,124.416z
		 M130.146,85.233c1.374,8.801,2.869,17.585,2.637,26.537c-0.175,6.789-0.429,13.577-0.724,20.362
		c-0.213,4.896-5.455,10.109-10.03,9.894c-1.638-0.078-3.346-0.47-4.856-1.109c-4.104-1.736-5.649-4.783-5.346-9.813
		c0.358-5.939,0.968-11.883,0.924-17.821c-0.041-5.452-0.685-10.913-1.28-16.346c-0.957-8.739-2.222-17.471-1.665-26.276
		c0.312-4.92,1.26-9.803,1.976-14.694c0.398-2.716,0.909-5.415,1.369-8.122c-0.093-0.075-0.187-0.15-0.279-0.225
		c-1.398,0.834-2.768,1.723-4.202,2.49c-1.821,0.975-3.614,2.113-5.563,2.719c-4.435,1.379-8.044-0.834-9.179-5.346
		c-1.968-7.825,3.394-16.109,11.369-16.971c4.545-0.491,9.176-0.247,13.768-0.213c3.434,0.025,6.871,0.156,10.297,0.395
		c5.932,0.413,11.877,0.761,17.772,1.491c4.239,0.525,5.742,2.63,5.623,6.883c-0.081,2.883-0.933,5.583-2.361,8.078
		c-0.531,0.927-1.169,1.823-1.899,2.601c-1.885,2.007-4.246,2.364-6.626,0.932c-1.292-0.777-2.483-1.749-3.628-2.74
		c-2.961-2.565-5.675-0.967-6.998,1.358c-1.37,2.409-1.938,5.061-2.233,7.766C127.978,66.506,128.689,75.896,130.146,85.233z
		 M199.35,48.144c6.23,11.007,10.489,22.724,12.624,35.195c1.207,7.055,1.932,14.169,2.038,21.324
		c0.094,6.311,0.162,12.634-0.126,18.935c-0.242,5.303-1.064,10.578-3.673,15.355c-1.436,2.631-3.433,4.633-6.563,5.083
		c-6.381,0.917-9.952-4.467-9.424-8.886c0.404-3.39,1.364-6.709,2.01-10.072c0.586-3.051,1.086-6.119,1.617-9.18
		c0.824-4.759-2.175-6.426-6.027-6.637c-1.516-0.084-3.039-0.014-4.559-0.014c-0.002-0.03-0.003-0.061-0.005-0.091
		c-1.911,0.094-3.839,0.064-5.729,0.316c-1.9,0.253-2.854,1.487-3.105,3.421c-0.452,3.469,0.163,6.76,1.638,9.9
		c1.152,2.455,2.472,4.84,3.486,7.35c0.587,1.451,0.915,3.076,1.004,4.644c0.139,2.441-1.138,4.233-3.366,5.171
		c-4.683,1.971-8.858,1.377-11.95-2.799c-2.699-3.646-4.04-7.866-4.997-12.208c-1.989-9.025-2.647-18.166-1.967-27.386
		c1.246-16.862,5.554-32.915,12.991-48.103c2.38-4.859,5.23-9.44,8.972-13.397c2.643-2.795,5.596-5.166,9.479-5.978
		c2.282-0.478,4.535-0.307,6.622,0.883c2.869,1.636,4.041,4.229,2.811,7.288c-0.785,1.954-2.088,3.743-3.381,5.437
		C198.235,45.706,198.088,45.914,199.35,48.144z M261.215,76.588c0.709,6.619,1.764,13.203,2.701,19.796
		c0.98,6.91,1.084,13.846,0.76,20.805c-0.229,4.908-0.396,9.818-0.537,14.73c-0.115,4.009-4.234,9.1-8.158,9.981
		c-4.193,0.942-9.527-1.509-11.32-5.192c-1.166-2.393-0.852-4.936-0.664-7.426c0.484-6.454,1.186-12.904,0.811-19.384
		c-0.258-4.421-0.795-8.825-1.217-13.237c-0.563-5.879-1.197-11.752-1.685-17.638c-0.633-7.629,0.428-15.135,1.851-22.608
		c0.537-2.812,0.977-5.642,1.461-8.463c-0.113-0.088-0.229-0.177-0.344-0.266c-1.328,0.782-2.634,1.604-3.991,2.334
		c-1.82,0.98-3.595,2.15-5.538,2.775c-4.698,1.511-8.689-0.974-9.421-5.86c-1.191-7.96,3.246-16.587,13.66-16.654
		c9.661-0.063,19.327,0.48,28.985,0.875c3.543,0.145,7.072,0.616,10.604,0.975c0.586,0.059,1.162,0.277,1.725,0.474
		c2.689,0.937,4.066,2.598,4.018,5.445c-0.072,4.123-1.197,7.977-3.879,11.216c-2.195,2.651-4.879,2.988-7.742,1.018
		c-1.182-0.814-2.244-1.801-3.4-2.655c-2.186-1.616-4.418-1.274-6.049,0.911c-1.604,2.149-2.201,4.688-2.574,7.257
		C260.27,62.72,260.475,69.675,261.215,76.588z M301.438,48.301c-7.217-4.151-4.764-12.039-0.094-15.047
		c2.506-1.614,5.279-2.495,8.199-2.783c3.373-0.333,6.77-0.438,10.676-0.673c4.525,0.275,9.549,0.542,14.563,0.915
		c1.217,0.091,2.438,0.44,3.604,0.826c4.139,1.369,5.996,4.224,6.367,9.281c0.352,4.813-1.863,7.074-6.697,7.387
		c-2.795,0.181-5.633-0.362-8.453-0.522c-1.902-0.107-3.826-0.292-5.709-0.116c-1.953,0.183-3.24,1.515-3.813,3.375
		c-1.857,6.027-3.639,12.076-4.033,18.422c-0.074,1.196-0.092,2.397-0.086,3.596c0.012,2.06,0.24,2.204,2.262,2.299
		c2.588,0.122,5.184,0.255,7.744,0.604c1.271,0.173,2.551,0.698,3.697,1.305c3.633,1.921,5.281,6.604,3.783,10.426
		c-1.115,2.846-4.416,4.452-7.887,3.765c-1.719-0.339-3.4-0.874-5.121-1.195c-3.168-0.591-4.984,0.711-5.229,3.913
		c-0.449,5.889,0.039,11.728,1.328,17.494c0.68,3.035,1.379,6.066,2.072,9.098c0.541,2.363,1.396,3.095,3.846,3.316
		c3.695,0.336,7.4,0.591,11.082,1.049c2.266,0.282,4.432,1.033,6.26,2.51c2.43,1.963,3.352,5.539,2.252,8.733
		c-1.051,3.052-3.803,5.245-6.977,5.056c-2.93-0.173-5.893-0.563-8.732-1.281c-5.154-1.306-10.242-1.352-15.41-0.234
		c-2.666,0.576-5.383,0.711-8.09,0.143c-0.234-0.05-0.465-0.117-0.693-0.184c-4.414-1.273-5.607-4.199-3.805-8.316
		c0.85-1.939,2.551-3.527,3.965-5.191c0.553-0.65,0.814-1.148,0.688-2.072c-1.254-9.213-2.424-18.437-3.617-27.657
		c-0.006-0.04-0.012-0.08-0.01-0.12c0.135-2.511-0.584-4.169-3.254-5.275c-3.363-1.393-4.195-5.239-2.402-8.952
		c0.637-1.317,1.5-2.552,2.418-3.699c1.705-2.13,2.838-4.325,2.938-7.214c0.25-7.271,1.42-14.45,2.859-21.58
		C302.035,49.166,302.123,48.696,301.438,48.301z M401.176,139.291c0.006,1.031-0.238,1.447-1.326,1.361
		c-1.139-0.09-2.291-0.02-3.523-0.02c0-5.859,0-11.559,0-17.305c-2.025,1.131-3.91,2.182-6.109,3.408
		c0-1.712-0.045-2.978,0.033-4.236c0.018-0.281,0.404-0.641,0.709-0.791c2.52-1.24,4.746-2.785,6.02-5.414
		c0.1-0.207,0.387-0.449,0.594-0.458c1.145-0.044,2.291-0.021,3.514-0.021c0.027,0.53,0.064,0.919,0.064,1.308
		C401.154,124.513,401.135,131.902,401.176,139.291z M419.287,132.484c-0.17-1.237-0.572-2.483-1.814-2.895
		c-1.078-0.355-2.303-0.264-3.584-0.381c0.123-0.943,0.213-2.045,0.449-3.114c0.059-0.261,0.582-0.537,0.926-0.593
		c1.357-0.219,2.457-0.732,2.873-2.161c0.428-1.472-0.148-2.811-1.393-3.304c-1.395-0.551-2.938,0.064-3.611,1.482
		c-0.234,0.494-0.371,1.035-0.57,1.609c-1.459-0.258-2.857-0.506-4.236-0.75c-0.014-3.045,2.086-5.628,5.301-6.334
		c2.9-0.635,5.664-0.318,7.859,1.994c2.553,2.691,2.285,6.268-0.621,8.568c-0.244,0.191-0.48,0.389-0.74,0.6
		c3.559,1.908,4.754,4.205,4.029,7.66c-0.668,3.19-3.688,5.785-7.061,6.066c-4.865,0.406-8.324-1.944-9.203-6.261
		c-0.039-0.191-0.033-0.393-0.063-0.772c1.605-0.195,3.098-0.377,4.555-0.556c1.215,3.042,2.43,3.962,4.408,3.43
		C418.434,136.332,419.553,134.428,419.287,132.484z M431.637,57.855c1.246-1.27,1.443-2.94,0.643-4.443
		c-0.793-1.492-1.891-2.846-2.992-4.145c-1.6-1.887-3.457-3.567-4.963-5.521c-2.826-3.669-2.957-7.96-0.566-11.223
		c2.455-3.348,7.307-4.817,11.41-3.456c1.982,0.657,3.139,1.919,3.182,3.475c0.049,1.756-1.256,3.746-2.957,4.442
		c-0.873,0.357-1.801,0.569-2.602-0.126c-0.777-0.673-1.111-1.534-0.789-2.583c0.076-0.252,0.047-0.538,0.066-0.826
		c-2.889,0.561-4.252,2.704-3.092,5.27c0.723,1.597,1.947,2.986,3.051,4.385c1.16,1.472,2.525,2.786,3.656,4.277
		c1.66,2.191,2.445,4.719,2.52,7.479c0.141,5.194-4.686,9.826-10.018,9.556c-0.994-0.051-2.004-0.116-2.967-0.342
		c-3.664-0.86-5.203-6.104-2.648-8.905c0.965-1.058,2.684-1.38,3.838-0.72c1.273,0.728,1.631,1.877,1.092,3.508
		c-0.098,0.297-0.186,0.599-0.336,1.086C428.98,59.346,430.48,59.033,431.637,57.855z M443.297,134.301
		c-0.627,3.452-3.408,6.216-6.697,6.603c-3.438,0.403-6.494-0.298-8.492-3.397c-0.648-1.006-0.945-2.236-1.484-3.565
		c1.816-0.224,3.338-0.411,4.824-0.593c1.168,3.039,2.424,3.98,4.434,3.42c1.732-0.483,2.764-2.403,2.359-4.676
		c-0.125-0.705-0.5-1.467-0.996-1.973c-0.463-0.474-1.215-0.801-1.885-0.9c-0.719-0.107-1.488,0.123-2.422,0.227
		c0.145-1.195,0.236-2.333,0.457-3.445c0.045-0.223,0.568-0.452,0.896-0.5c1.121-0.16,2.088-0.525,2.668-1.577
		c0.738-1.341,0.377-3.005-0.807-3.71c-1.328-0.793-3.035-0.352-3.83,1.051c-0.307,0.543-0.463,1.169-0.723,1.852
		c-1.432-0.247-2.865-0.494-4.291-0.74c0.295-3.573,2.791-6.146,6.186-6.502c2.566-0.268,4.955,0.077,6.889,1.979
		c2.709,2.668,2.459,6.51-0.563,8.846c-0.211,0.162-0.414,0.335-0.65,0.526C442.537,128.944,443.854,131.234,443.297,134.301z
		 M446.139,120.803c0-1.431-0.031-2.731,0.033-4.027c0.01-0.211,0.441-0.574,0.68-0.576c5.107-0.033,10.213-0.025,15.439-0.025
		c0.154,2.006,0.078,3.57-1.258,5.229c-4.211,5.225-6.455,11.318-6.836,18.044c-0.055,0.958-0.365,1.271-1.279,1.198
		c-0.756-0.061-1.523-0.068-2.275,0.001c-1.113,0.103-1.342-0.374-1.246-1.403c0.611-6.6,2.904-12.545,6.807-17.884
		c0.092-0.124,0.152-0.269,0.311-0.556C453.041,120.803,449.678,120.803,446.139,120.803z M462.227,32.511
		c-0.115,0.463-0.248,0.929-0.443,1.362c-0.891,1.979-2.146,2.28-3.863,0.952c-1.396-1.081-2.18-0.889-2.758,0.784
		c-0.27,0.78-0.412,1.625-0.479,2.45c-0.352,4.341,0.658,8.578,0.986,12.866c0.281,3.646,0.074,7.339-0.08,11.004
		c-0.066,1.579-1.912,2.964-3.361,2.854c-2.012-0.152-3.186-1.351-3.143-3.32c0.047-2.075,0.313-4.154,0.227-6.221
		c-0.123-2.906-0.402-5.813-0.756-8.702c-0.43-3.501-0.059-6.929,0.621-10.352c0.094-0.463,0.135-0.937,0.238-1.669
		c-0.984,0.555-1.715,1.043-2.506,1.395c-2.02,0.897-3.607-0.15-3.66-2.366c-0.068-2.874,1.68-4.843,4.607-4.81
		c4.029,0.046,8.059,0.262,12.082,0.518C462.059,29.393,462.732,30.469,462.227,32.511z M8.617,13.877
		c-0.074-0.082-0.147-0.165-0.222-0.247c1.102-1.181,2.136-2.435,3.315-3.531c6.483-6.024,14.16-9.16,23.022-9.16
		c137.946-0.013,275.894-0.024,413.839,0.02c10.242,0.003,18.707,4.202,25.4,11.952c0.221,0.255,0.391,0.555,0.678,0.966
		C319.184,13.877,163.9,13.877,8.617,13.877z"/>
	<path fill="#FFFFFF" d="M448.572,0.959C310.627,0.916,172.679,0.926,34.733,0.939c-8.863,0-16.539,3.136-23.022,9.16
		c-1.18,1.096-2.214,2.35-3.315,3.531c0.074,0.082,0.148,0.165,0.222,0.247c155.283,0,310.567,0,466.034,0
		c-0.287-0.412-0.457-0.711-0.678-0.966C467.279,5.162,458.814,0.963,448.572,0.959z"/>
	<path fill="#FFFFFF" d="M9.044,161.063c6.721,7.788,15.218,11.978,25.51,11.979c137.704,0.039,275.409,0.027,413.112,0.018
		c1.357,0,2.719-0.063,4.066-0.203c9.014-0.934,16.398-4.957,22.277-11.811c0.213-0.25,0.371-0.549,0.635-0.942
		c-155.482,0-310.765,0-466.287,0C8.68,160.558,8.841,160.828,9.044,161.063z"/>
	<path fill="#FFFFFF" d="M203.149,38.259c1.23-3.06,0.059-5.652-2.811-7.288c-2.087-1.19-4.34-1.361-6.622-0.883
		c-3.883,0.813-6.836,3.183-9.479,5.978c-3.741,3.957-6.592,8.539-8.972,13.397c-7.438,15.188-11.745,31.241-12.991,48.103
		c-0.681,9.22-0.022,18.36,1.967,27.386c0.957,4.342,2.298,8.562,4.997,12.208c3.092,4.176,7.268,4.77,11.95,2.799
		c2.229-0.938,3.505-2.729,3.366-5.171c-0.089-1.567-0.417-3.192-1.004-4.644c-1.015-2.51-2.334-4.895-3.486-7.35
		c-1.475-3.141-2.09-6.432-1.638-9.9c0.252-1.934,1.205-3.168,3.105-3.421c1.891-0.252,3.818-0.223,5.729-0.316
		c0.002,0.03,0.003,0.061,0.005,0.091c1.52,0,3.043-0.07,4.559,0.014c3.853,0.211,6.852,1.878,6.027,6.637
		c-0.531,3.061-1.031,6.129-1.617,9.18c-0.646,3.363-1.605,6.683-2.01,10.072c-0.528,4.419,3.043,9.803,9.424,8.886
		c3.131-0.45,5.128-2.452,6.563-5.083c2.608-4.777,3.431-10.053,3.673-15.355c0.288-6.301,0.22-12.624,0.126-18.935
		c-0.106-7.155-0.831-14.27-2.038-21.324c-2.135-12.471-6.394-24.188-12.624-35.195c-1.262-2.229-1.115-2.438,0.418-4.448
		C201.061,42.002,202.364,40.212,203.149,38.259z M196.106,95.736c-5.774,0.002-11.476,0.378-17.05,2.425
		c1.062-13.882,3.202-27.318,9.916-39.967C192.947,70.54,196.789,82.614,196.106,95.736z"/>
	<path fill="#FFFFFF" d="M35.909,109.246c-4.785,0.758-7.658,3.471-9.198,7.848c-1.139,3.238-1.167,6.586-0.726,9.946
		c0.714,5.437,3.104,9.809,8.446,11.821c2.614,0.986,5.446,1.559,8.231,1.89c5.032,0.599,10.025,0.325,14.867-1.497
		c10.43-3.922,22.157-14.625,19.857-31.679c-1.046-7.757-3.836-14.773-8.717-20.832c-3.655-4.536-7.698-8.76-11.604-13.091
		c-2.951-3.271-5.876-6.556-7.729-10.616c-1.332-2.918-2.21-6-1.537-9.183c1.062-5.029,4.65-7.707,9.326-9.152
		c0.663-0.205,1.384-0.223,2.284-0.359c-0.199,0.818-0.337,1.421-0.495,2.021c-0.441,1.672-0.77,3.335-0.293,5.074
		c0.956,3.491,3.653,5.391,7.21,5.019c5.013-0.523,10.021-5.091,11.57-10.558c0.563-1.986,0.789-4.003,0.309-6.031
		c-0.895-3.772-3.588-5.993-6.914-7.444c-7.705-3.361-15.629-3.5-23.481-0.714c-16.533,5.866-24.448,22.782-16.141,39.276
		c2.88,5.717,7.021,10.463,11.409,15.025c3.63,3.774,7.342,7.471,10.913,11.3c2.709,2.903,5.083,6.081,6.425,9.884
		c2.229,6.316,0.809,14.791-8.56,17.221c-2.711,0.702-5.466,1.119-8.277-0.039c0.609-1.834,1.228-3.598,1.78-5.381
		C46.722,113.012,40.14,108.578,35.909,109.246z"/>
	<path fill="#FFFFFF" d="M299.068,71.279c-0.1,2.889-1.232,5.084-2.938,7.214c-0.918,1.146-1.781,2.382-2.418,3.699
		c-1.793,3.713-0.961,7.56,2.402,8.952c2.67,1.106,3.389,2.765,3.254,5.275c-0.002,0.04,0.004,0.08,0.01,0.12
		c1.193,9.221,2.363,18.444,3.617,27.657c0.127,0.924-0.135,1.422-0.688,2.072c-1.414,1.664-3.115,3.252-3.965,5.191
		c-1.803,4.117-0.609,7.043,3.805,8.316c0.229,0.066,0.459,0.134,0.693,0.184c2.707,0.568,5.424,0.434,8.09-0.143
		c5.168-1.117,10.256-1.071,15.41,0.234c2.84,0.719,5.803,1.108,8.732,1.281c3.174,0.189,5.926-2.004,6.977-5.056
		c1.1-3.194,0.178-6.771-2.252-8.733c-1.828-1.477-3.994-2.228-6.26-2.51c-3.682-0.458-7.387-0.713-11.082-1.049
		c-2.449-0.222-3.305-0.953-3.846-3.316c-0.693-3.031-1.393-6.063-2.072-9.098c-1.289-5.767-1.777-11.605-1.328-17.494
		c0.244-3.202,2.061-4.504,5.229-3.913c1.721,0.321,3.402,0.856,5.121,1.195c3.471,0.687,6.771-0.919,7.887-3.765
		c1.498-3.822-0.15-8.505-3.783-10.426c-1.146-0.607-2.426-1.132-3.697-1.305c-2.561-0.348-5.156-0.481-7.744-0.604
		c-2.021-0.095-2.25-0.24-2.262-2.299c-0.006-1.198,0.012-2.4,0.086-3.596c0.395-6.347,2.176-12.396,4.033-18.422
		c0.572-1.861,1.859-3.192,3.813-3.375c1.883-0.176,3.807,0.009,5.709,0.116c2.82,0.16,5.658,0.703,8.453,0.522
		c4.834-0.313,7.049-2.574,6.697-7.387c-0.371-5.057-2.229-7.912-6.367-9.281c-1.166-0.386-2.387-0.735-3.604-0.826
		c-5.014-0.373-10.037-0.639-14.563-0.915c-3.906,0.235-7.303,0.34-10.676,0.673c-2.92,0.288-5.693,1.168-8.199,2.783
		c-4.67,3.009-7.123,10.896,0.094,15.047c0.686,0.396,0.598,0.865,0.49,1.399C300.488,56.83,299.318,64.008,299.068,71.279z"/>
	<path fill="#FFFFFF" d="M263.844,48.542c1.631-2.186,3.863-2.527,6.049-0.911c1.156,0.854,2.219,1.841,3.4,2.655
		c2.863,1.97,5.547,1.633,7.742-1.018c2.682-3.239,3.807-7.093,3.879-11.216c0.049-2.848-1.328-4.509-4.018-5.445
		c-0.563-0.196-1.139-0.415-1.725-0.474c-3.531-0.359-7.061-0.83-10.604-0.975c-9.658-0.395-19.324-0.938-28.985-0.875
		c-10.414,0.067-14.852,8.694-13.66,16.654c0.731,4.886,4.723,7.371,9.421,5.86c1.943-0.625,3.718-1.795,5.538-2.775
		c1.356-0.73,2.663-1.552,3.991-2.334c0.115,0.089,0.23,0.178,0.344,0.266c-0.484,2.822-0.924,5.652-1.461,8.463
		c-1.423,7.473-2.484,14.979-1.851,22.608c0.488,5.886,1.123,11.759,1.685,17.638c0.422,4.412,0.959,8.816,1.217,13.237
		c0.375,6.479-0.326,12.93-0.811,19.384c-0.188,2.49-0.502,5.033,0.664,7.426c1.793,3.684,7.127,6.135,11.32,5.192
		c3.924-0.882,8.043-5.973,8.158-9.981c0.141-4.912,0.309-9.822,0.537-14.73c0.324-6.959,0.221-13.895-0.76-20.805
		c-0.938-6.594-1.992-13.177-2.701-19.796c-0.74-6.913-0.945-13.869,0.055-20.79C261.643,53.229,262.24,50.69,263.844,48.542z"/>
	<path fill="#FFFFFF" d="M131.244,49.297c1.323-2.326,4.037-3.924,6.998-1.358c1.145,0.991,2.336,1.963,3.628,2.74
		c2.38,1.432,4.741,1.075,6.626-0.932c0.73-0.777,1.368-1.673,1.899-2.601c1.429-2.495,2.28-5.195,2.361-8.078
		c0.119-4.253-1.384-6.358-5.623-6.883c-5.896-0.73-11.841-1.078-17.772-1.491c-3.426-0.239-6.863-0.37-10.297-0.395
		c-4.592-0.034-9.223-0.278-13.768,0.213c-7.976,0.861-13.337,9.146-11.369,16.971c1.135,4.512,4.744,6.725,9.179,5.346
		c1.948-0.605,3.741-1.744,5.563-2.719c1.435-0.768,2.804-1.656,4.202-2.49c0.093,0.075,0.187,0.149,0.279,0.225
		c-0.46,2.707-0.971,5.406-1.369,8.122c-0.716,4.891-1.664,9.773-1.976,14.694c-0.557,8.805,0.708,17.537,1.665,26.276
		c0.596,5.433,1.239,10.894,1.28,16.346c0.044,5.938-0.565,11.882-0.924,17.821c-0.304,5.029,1.241,8.076,5.346,9.813
		c1.511,0.64,3.219,1.031,4.856,1.109c4.575,0.216,9.817-4.998,10.03-9.894c0.295-6.785,0.549-13.573,0.724-20.362
		c0.232-8.951-1.263-17.735-2.637-26.537c-1.457-9.337-2.168-18.727-1.136-28.17C129.306,54.358,129.874,51.707,131.244,49.297z"/>
	<path fill="#FFFFFF" d="M426.408,54.45c-1.154-0.66-2.873-0.337-3.838,0.72c-2.555,2.802-1.016,8.045,2.648,8.905
		c0.963,0.226,1.973,0.291,2.967,0.342c5.332,0.271,10.158-4.361,10.018-9.556c-0.074-2.76-0.859-5.289-2.52-7.479
		c-1.131-1.492-2.496-2.805-3.656-4.277c-1.104-1.399-2.328-2.789-3.051-4.385c-1.16-2.566,0.203-4.708,3.092-5.27
		c-0.02,0.288,0.01,0.573-0.066,0.826c-0.322,1.048,0.012,1.91,0.789,2.583c0.801,0.695,1.729,0.483,2.602,0.126
		c1.701-0.696,3.006-2.686,2.957-4.442c-0.043-1.556-1.199-2.817-3.182-3.475c-4.104-1.361-8.955,0.108-11.41,3.456
		c-2.391,3.263-2.26,7.554,0.566,11.223c1.506,1.954,3.363,3.634,4.963,5.521c1.102,1.299,2.199,2.653,2.992,4.145
		c0.801,1.503,0.604,3.173-0.643,4.443c-1.156,1.178-2.656,1.49-4.473,1.188c0.15-0.487,0.238-0.789,0.336-1.086
		C428.039,56.327,427.682,55.178,426.408,54.45z"/>
	<path fill="#FFFFFF" d="M459.939,29.257c-4.023-0.256-8.053-0.472-12.082-0.518c-2.928-0.033-4.676,1.936-4.607,4.81
		c0.053,2.215,1.641,3.263,3.66,2.366c0.791-0.352,1.521-0.84,2.506-1.395c-0.104,0.732-0.145,1.206-0.238,1.669
		c-0.68,3.423-1.051,6.851-0.621,10.352c0.354,2.889,0.633,5.795,0.756,8.702c0.086,2.067-0.18,4.146-0.227,6.221
		c-0.043,1.969,1.131,3.168,3.143,3.32c1.449,0.109,3.295-1.276,3.361-2.854c0.154-3.665,0.361-7.358,0.08-11.004
		c-0.328-4.288-1.338-8.525-0.986-12.866c0.066-0.826,0.209-1.67,0.479-2.45c0.578-1.672,1.361-1.864,2.758-0.784
		c1.717,1.328,2.973,1.027,3.863-0.952c0.195-0.433,0.328-0.899,0.443-1.362C462.732,30.469,462.059,29.393,459.939,29.257z"/>
	<path fill="#FFFFFF" d="M440.383,117.852c-1.934-1.901-4.322-2.246-6.889-1.979c-3.395,0.355-5.891,2.929-6.186,6.502
		c1.426,0.246,2.859,0.493,4.291,0.74c0.26-0.683,0.416-1.309,0.723-1.852c0.795-1.402,2.502-1.844,3.83-1.051
		c1.184,0.705,1.545,2.369,0.807,3.71c-0.58,1.052-1.547,1.417-2.668,1.577c-0.328,0.048-0.852,0.277-0.896,0.5
		c-0.221,1.112-0.313,2.25-0.457,3.445c0.934-0.104,1.703-0.334,2.422-0.227c0.67,0.1,1.422,0.427,1.885,0.9
		c0.496,0.506,0.871,1.268,0.996,1.973c0.404,2.272-0.627,4.192-2.359,4.676c-2.01,0.561-3.266-0.381-4.434-3.42
		c-1.486,0.182-3.008,0.369-4.824,0.593c0.539,1.329,0.836,2.56,1.484,3.565c1.998,3.1,5.055,3.801,8.492,3.397
		c3.289-0.387,6.07-3.15,6.697-6.603c0.557-3.066-0.76-5.356-4.127-7.077c0.236-0.191,0.439-0.364,0.65-0.526
		C442.842,124.361,443.092,120.52,440.383,117.852z"/>
	<path fill="#FFFFFF" d="M416.791,136.774c-1.979,0.532-3.193-0.388-4.408-3.43c-1.457,0.179-2.949,0.36-4.555,0.556
		c0.029,0.38,0.023,0.581,0.063,0.772c0.879,4.316,4.338,6.667,9.203,6.261c3.373-0.281,6.393-2.876,7.061-6.066
		c0.725-3.455-0.471-5.752-4.029-7.66c0.26-0.211,0.496-0.408,0.74-0.6c2.906-2.301,3.174-5.877,0.621-8.568
		c-2.195-2.313-4.959-2.629-7.859-1.994c-3.215,0.706-5.314,3.289-5.301,6.334c1.379,0.244,2.777,0.492,4.236,0.75
		c0.199-0.574,0.336-1.115,0.57-1.609c0.674-1.418,2.217-2.033,3.611-1.482c1.244,0.493,1.82,1.832,1.393,3.304
		c-0.416,1.429-1.516,1.942-2.873,2.161c-0.344,0.056-0.867,0.332-0.926,0.593c-0.236,1.069-0.326,2.171-0.449,3.114
		c1.281,0.117,2.506,0.025,3.584,0.381c1.242,0.411,1.645,1.657,1.814,2.895C419.553,134.428,418.434,136.332,416.791,136.774z"/>
	<path fill="#FFFFFF" d="M449.396,139.242c-0.096,1.029,0.133,1.506,1.246,1.403c0.752-0.069,1.52-0.062,2.275-0.001
		c0.914,0.073,1.225-0.24,1.279-1.198c0.381-6.726,2.625-12.819,6.836-18.044c1.336-1.658,1.412-3.223,1.258-5.229
		c-5.227,0-10.332-0.008-15.439,0.025c-0.238,0.002-0.67,0.365-0.68,0.576c-0.064,1.296-0.033,2.597-0.033,4.027
		c3.539,0,6.902,0,10.375,0c-0.158,0.287-0.219,0.432-0.311,0.556C452.301,126.697,450.008,132.643,449.396,139.242z"/>
	<path fill="#FFFFFF" d="M401.086,115.816c-1.223,0-2.369-0.023-3.514,0.021c-0.207,0.009-0.494,0.251-0.594,0.458
		c-1.273,2.629-3.5,4.174-6.02,5.414c-0.305,0.15-0.691,0.51-0.709,0.791c-0.078,1.259-0.033,2.524-0.033,4.236
		c2.199-1.227,4.084-2.277,6.109-3.408c0,5.746,0,11.445,0,17.305c1.232,0,2.385-0.07,3.523,0.02
		c1.088,0.086,1.332-0.33,1.326-1.361c-0.041-7.389-0.021-14.778-0.025-22.167C401.15,116.735,401.113,116.347,401.086,115.816z"/>
	<path d="M179.056,98.161c5.574-2.047,11.275-2.423,17.05-2.425c0.683-13.123-3.159-25.196-7.134-37.542
		C182.258,70.843,180.118,84.279,179.056,98.161z"/>
</g>
</svg>
