<?xml version="1.0" encoding="utf-8"?>
<!-- Generator: Adobe Illustrator 16.0.0, SVG Export Plug-In . SVG Version: 6.00 Build 0)  -->
<!DOCTYPE svg PUBLIC "-//W3C//DTD SVG 1.1//EN" "http://www.w3.org/Graphics/SVG/1.1/DTD/svg11.dtd">
<svg version="1.1" id="Layer_1" xmlns="http://www.w3.org/2000/svg" xmlns:xlink="http://www.w3.org/1999/xlink" x="0px" y="0px"
	 width="16px" height="16px" viewBox="0 0 16 16" enable-background="new 0 0 16 16" xml:space="preserve">
<path fill="#1C75BC" d="M16,15c0,0.553-0.447,1-1,1H1c-0.552,0-1-0.447-1-1V1c0-0.552,0.448-1,1-1h14c0.553,0,1,0.448,1,1V15z"/>
<path d="M5.266,6.477H3.402V5.905c0-0.268-0.023-0.438-0.071-0.511C3.283,5.322,3.204,5.285,3.093,5.285
	c-0.121,0-0.213,0.05-0.274,0.147c-0.062,0.1-0.093,0.249-0.093,0.449c0,0.258,0.035,0.451,0.104,0.582
	c0.066,0.13,0.255,0.287,0.567,0.472C4.29,7.466,4.853,7.9,5.085,8.24c0.231,0.34,0.348,0.889,0.348,1.645
	c0,0.55-0.064,0.955-0.192,1.216c-0.129,0.261-0.378,0.479-0.746,0.654c-0.369,0.177-0.798,0.266-1.287,0.266
	c-0.537,0-0.995-0.102-1.375-0.305c-0.38-0.204-0.629-0.463-0.746-0.777C0.968,10.624,0.909,10.178,0.909,9.6V9.094h1.864v0.939
	c0,0.289,0.025,0.475,0.078,0.558c0.053,0.082,0.146,0.124,0.279,0.124c0.133,0,0.232-0.053,0.298-0.157
	c0.064-0.105,0.098-0.261,0.098-0.468c0-0.454-0.063-0.751-0.187-0.891C3.213,9.06,2.9,8.825,2.401,8.498
	c-0.499-0.331-0.829-0.57-0.991-0.72s-0.297-0.356-0.403-0.62s-0.159-0.601-0.159-1.01c0-0.592,0.075-1.023,0.227-1.297
	c0.15-0.273,0.395-0.487,0.731-0.642c0.337-0.153,0.743-0.23,1.22-0.23c0.521,0,0.966,0.084,1.333,0.252
	C4.725,4.4,4.968,4.612,5.087,4.868s0.179,0.69,0.179,1.304V6.477z"/>
<path d="M10.313,6.477H8.45V5.905c0-0.268-0.023-0.438-0.071-0.511C8.331,5.322,8.252,5.285,8.141,5.285
	c-0.121,0-0.213,0.05-0.275,0.147c-0.062,0.1-0.092,0.249-0.092,0.449c0,0.258,0.035,0.451,0.104,0.582
	c0.065,0.13,0.255,0.287,0.566,0.472C9.338,7.466,9.9,7.9,10.133,8.24c0.231,0.34,0.348,0.889,0.348,1.645
	c0,0.55-0.064,0.955-0.193,1.216s-0.377,0.479-0.745,0.654c-0.369,0.177-0.798,0.266-1.287,0.266c-0.537,0-0.996-0.102-1.375-0.305
	c-0.38-0.204-0.629-0.463-0.746-0.777C6.016,10.624,5.957,10.178,5.957,9.6V9.094h1.864v0.939c0,0.289,0.025,0.475,0.078,0.558
	c0.052,0.082,0.146,0.124,0.279,0.124s0.232-0.053,0.297-0.157c0.065-0.105,0.099-0.261,0.099-0.468
	c0-0.454-0.062-0.751-0.186-0.891c-0.127-0.14-0.44-0.374-0.939-0.701C6.95,8.167,6.62,7.928,6.458,7.778s-0.297-0.356-0.403-0.62
	s-0.159-0.601-0.159-1.01c0-0.592,0.075-1.023,0.226-1.297C6.272,4.578,6.517,4.364,6.854,4.21c0.337-0.153,0.744-0.23,1.221-0.23
	c0.521,0,0.964,0.084,1.331,0.252c0.367,0.169,0.61,0.381,0.729,0.637s0.179,0.69,0.179,1.304V6.477z"/>
<path d="M15.152,4.142v1.544H13.96v6.173h-2.007V5.686h-1.187V4.142H15.152z"/>
</svg>
